<svg width="96" height="96" xmlns="http://www.w3.org/2000/svg" xmlns:xlink="http://www.w3.org/1999/xlink" xml:space="preserve" overflow="hidden"><defs><clipPath id="clip0"><rect x="64" y="114" width="96" height="96"/></clipPath></defs><g clip-path="url(#clip0)" transform="translate(-64 -114)"><path d="M149.5 189.6 137 177.1C135.3 175.4 133 174.8 130.8 175.2L126.4 170.8C130.3 165.8 132.6 159.4 132.6 152.6 132.6 136.1 119.1 122.6 102.6 122.6 86.1 122.6 72.6 136.1 72.6 152.6 72.6 169.1 86.1 182.6 102.6 182.6 109.4 182.6 115.7 180.3 120.8 176.4L125.2 180.8C124.8 183 125.4 185.3 127.1 187L139.6 199.5C141 200.9 142.8 201.6 144.6 201.6 146.4 201.6 148.2 200.9 149.6 199.5 152.2 196.7 152.2 192.3 149.5 189.6ZM102.5 176.5C89.3 176.5 78.5 165.7 78.5 152.5 78.5 139.3 89.3 128.5 102.5 128.5 115.7 128.5 126.5 139.3 126.5 152.5 126.5 165.7 115.7 176.5 102.5 176.5Z"/></g></svg>